<?xml version="1.0" encoding="utf-8"?>
<!-- Generator: Adobe Illustrator 24.1.0, SVG Export Plug-In . SVG Version: 6.00 Build 0)  -->
<svg version="1.1" id="Layer_1" xmlns="http://www.w3.org/2000/svg" xmlns:xlink="http://www.w3.org/1999/xlink" x="0px" y="0px"
	 viewBox="0 0 334 328" style="enable-background:new 0 0 334 328;" xml:space="preserve">
<style type="text/css">
	.st0{fill:#FFFFFF;stroke:#000000;stroke-width:10;stroke-miterlimit:10;}
	.st1{clip-path:url(#SVGID_2_);fill:none;stroke:#F4B000;stroke-width:10;stroke-miterlimit:10;}
	.st2{fill:none;stroke:#000000;stroke-width:7.9566;stroke-miterlimit:10;}
</style>
<g>
	<polygon class="st0" points="105,138.9 42,138.9 10.6,193.4 42,247.9 105,247.9 136.4,193.4 	"/>
	<polygon class="st0" points="293,138.9 230,138.9 198.6,193.4 230,247.9 293,247.9 324.4,193.4 	"/>
	<polygon points="199,83.9 136,83.9 104.6,138.4 136,192.9 199,192.9 230.4,138.4 	"/>
	<polygon class="st0" points="199,193.9 136,193.9 104.6,248.4 136,302.9 199,302.9 230.4,248.4 	"/>
	<g>
		<defs>
			<polygon id="SVGID_1_" points="192.5,205 142.5,205 117.4,248.4 142.5,291.7 192.5,291.7 217.6,248.4 			"/>
		</defs>
		<clipPath id="SVGID_2_">
			<use xlink:href="#SVGID_1_"  style="overflow:visible;"/>
		</clipPath>
		<line class="st1" x1="117.1" y1="207.9" x2="217.1" y2="207.9"/>
		<line class="st1" x1="117.1" y1="227.9" x2="217.1" y2="227.9"/>
		<line class="st1" x1="117.1" y1="247.9" x2="217.1" y2="247.9"/>
		<line class="st1" x1="117.1" y1="267.9" x2="217.1" y2="267.9"/>
		<line class="st1" x1="117.1" y1="287.9" x2="217.1" y2="287.9"/>
	</g>
	<line class="st2" x1="195.1" y1="90.9" x2="230.1" y2="28.9"/>
	<line class="st2" x1="139.9" y1="90.9" x2="104.9" y2="28.9"/>
	<circle cx="105.1" cy="28.9" r="9"/>
	<circle cx="230.1" cy="28.9" r="9"/>
</g>
</svg>
