<?xml version="1.0" encoding="utf-8"?><svg xml:space="preserve" viewBox="0 0 100 100" y="0" x="0" xmlns="http://www.w3.org/2000/svg" id="圖層_1" version="1.1" width="47px" height="47px" xmlns:xlink="http://www.w3.org/1999/xlink" style="width:100%;height:100%;background-size:initial;background-repeat-y:initial;background-repeat-x:initial;background-position-y:initial;background-position-x:initial;background-origin:initial;background-image:initial;background-color:rgb(241, 242, 243);background-clip:initial;background-attachment:initial;animation-play-state:paused" ><g class="ldl-scale" style="transform-origin:50% 50%;transform:rotate(0deg) scale(0.8, 0.8);animation-play-state:paused" ><g style="animation-play-state:paused" ><path fill="#f47e60" d="M68.627 71.773l-52.155 13.2V20.454L67.329 7.582a2.645 2.645 0 0 1 3.294 2.564v59.062a2.644 2.644 0 0 1-1.996 2.565z" style="fill:rgb(206, 100, 166);animation-play-state:paused" ></path>
<path fill="#e0e0e0" d="M68.26 10.512l12.904 7.527-51.788 13.168c-6.767.099-11.069-2.41-12.904-7.527L68.26 10.512z" style="fill:rgb(69, 174, 231);animation-play-state:paused" ></path>
<path fill="#e15b64" d="M81.531 79.3L29.376 92.5V27.981l50.857-12.872a2.645 2.645 0 0 1 3.294 2.564v59.062a2.646 2.646 0 0 1-1.996 2.565z" style="fill:rgb(216, 240, 91);animation-play-state:paused" ></path>
<path fill="#f8b26a" d="M16.473 20.454v64.519c1.86 6.274 7.015 7.467 12.904 7.527V27.981c-6.94.007-11.241-2.503-12.904-7.527z" style="fill:rgb(189, 160, 178);animation-play-state:paused" ></path></g>
<g style="animation-play-state:paused" ><path stroke-miterlimit="10" stroke-linejoin="round" stroke-linecap="round" stroke-width="3.875" stroke="#fff" fill="none" d="M71.452 49.602c0 8.284-6.716 16.86-15 19.155-8.284 2.295-15-2.56-15-10.845s6.716-16.86 15-19.155 15 2.561 15 10.845z" style="stroke:rgb(0, 85, 165);animation-play-state:paused" ></path>
<path fill="#fff" d="M64.156 49.341L59.3 50.686c-.084.023-.138-.053-.097-.138l.128-.266 1.506-3.127a.287.287 0 0 1 .176-.152l1.132-.314 2.011-.557c.151-.042.248-.228.18-.344a2.857 2.857 0 0 0-.8-.875c-.763-.546-1.811-.725-2.97-.404-2.331.646-4.222 3.06-4.222 5.391 0 .359.05.691.134 1l-4.8 6.13-2.713 3.464c-.559.713-.559 1.619 0 2.023l.502.363.502.363c.559.404 1.464.153 2.023-.56l2.334-2.981 5.164-6.594a4.26 4.26 0 0 0 1.077-.154c1.649-.457 3.076-1.797 3.771-3.368.066-.154-.031-.287-.182-.245z" style="fill:rgb(0, 85, 165);animation-play-state:paused" ></path></g>
<metadata xmlns:d="https://loading.io/stock/" style="animation-play-state:paused" ><d:name style="animation-play-state:paused" >manual</d:name>


<d:tags style="animation-play-state:paused" >instruction,operation,config,wrench,workbook,documentation,handbook,manual,books</d:tags>


<d:license style="animation-play-state:paused" >by</d:license>


<d:slug style="animation-play-state:paused" >t1baxi</d:slug></metadata></g><!-- generated by https://loading.io/ --></svg>